<svg xmlns="http://www.w3.org/2000/svg" width="200" height="60" viewBox="0 0 200 60">
  <!-- Button Background -->
  <linearGradient id="buttonGradient" x1="0%" y1="0%" x2="100%" y2="100%">
    <stop offset="0%" stop-color="#00c6ff" />
    <stop offset="100%" stop-color="#0072ff" />
  </linearGradient>
  
  <!-- Button Shape with Beveled Corners -->
  <path d="M10,0 H190 L200,10 V50 L190,60 H10 L0,50 V10 Z" fill="url(#buttonGradient)" />
  
  <!-- Top Highlight -->
  <path d="M10,1 H189 L198,10 V11 L189,2 H10 Z" fill="rgba(255,255,255,0.3)" />
  
  <!-- Bottom Shadow -->
  <path d="M10,59 H189 L198,50 V49 L189,58 H10 L2,50 V49 Z" fill="rgba(0,0,0,0.2)" />
  
  <!-- Left Edge Highlight -->
  <path d="M1,10 L10,1 V59 L1,50 Z" fill="rgba(255,255,255,0.1)" />
  
  <!-- Right Edge Shadow -->
  <path d="M199,10 L190,1 V59 L199,50 Z" fill="rgba(0,0,0,0.1)" />
  
  <!-- Decorative Elements -->
  <g opacity="0.7">
    <!-- Left Corner Accent -->
    <path d="M0,10 L10,0 L15,5 L5,15 Z" fill="rgba(255,255,255,0.2)" />
    
    <!-- Right Corner Accent -->
    <path d="M200,50 L190,60 L185,55 L195,45 Z" fill="rgba(255,255,255,0.2)" />
  </g>
  
  <!-- Tech Lines -->
  <g stroke="rgba(255,255,255,0.3)" stroke-width="1">
    <line x1="20" y1="5" x2="20" y2="55" />
    <line x1="180" y1="5" x2="180" y2="55" />
  </g>
  
  <!-- Small Circles -->
  <circle cx="20" cy="10" r="2" fill="rgba(255,255,255,0.5)" />
  <circle cx="20" cy="50" r="2" fill="rgba(255,255,255,0.5)" />
  <circle cx="180" cy="10" r="2" fill="rgba(255,255,255,0.5)" />
  <circle cx="180" cy="50" r="2" fill="rgba(255,255,255,0.5)" />
  
  <!-- Glow Effect -->
  <defs>
    <filter id="glow" x="-20%" y="-20%" width="140%" height="140%">
      <feGaussianBlur stdDeviation="2" result="blur" />
      <feComposite in="SourceGraphic" in2="blur" operator="over" />
    </filter>
  </defs>
</svg>