<svg xmlns="http://www.w3.org/2000/svg" width="1920" height="200" viewBox="0 0 1920 200">
  <!-- Background -->
  <rect width="1920" height="200" fill="none"/>
  
  <!-- Bottom Border with Glow Effect -->
  <rect x="0" y="198" width="1920" height="2" fill="#00c6ff" filter="url(#glow)"/>
  
  <!-- Diagonal Lines -->
  <g stroke="rgba(0,198,255,0.2)" stroke-width="1">
    <line x1="0" y1="0" x2="200" y2="200" />
    <line x1="200" y1="0" x2="400" y2="200" />
    <line x1="400" y1="0" x2="600" y2="200" />
    <line x1="600" y1="0" x2="800" y2="200" />
    <line x1="800" y1="0" x2="1000" y2="200" />
    <line x1="1000" y1="0" x2="1200" y2="200" />
    <line x1="1200" y1="0" x2="1400" y2="200" />
    <line x1="1400" y1="0" x2="1600" y2="200" />
    <line x1="1600" y1="0" x2="1800" y2="200" />
    <line x1="1800" y1="0" x2="1920" y2="120" />
  </g>
  
  <!-- Horizontal Lines with Varying Opacity -->
  <g>
    <line x1="0" y1="50" x2="1920" y2="50" stroke="rgba(0,198,255,0.1)" stroke-width="1" />
    <line x1="0" y1="100" x2="1920" y2="100" stroke="rgba(0,198,255,0.15)" stroke-width="1" />
    <line x1="0" y1="150" x2="1920" y2="150" stroke="rgba(0,198,255,0.2)" stroke-width="1" />
  </g>
  
  <!-- Vertical Lines -->
  <g stroke="rgba(0,198,255,0.05)" stroke-width="1">
    <line x1="100" y1="0" x2="100" y2="200" />
    <line x1="300" y1="0" x2="300" y2="200" />
    <line x1="500" y1="0" x2="500" y2="200" />
    <line x1="700" y1="0" x2="700" y2="200" />
    <line x1="900" y1="0" x2="900" y2="200" />
    <line x1="1100" y1="0" x2="1100" y2="200" />
    <line x1="1300" y1="0" x2="1300" y2="200" />
    <line x1="1500" y1="0" x2="1500" y2="200" />
    <line x1="1700" y1="0" x2="1700" y2="200" />
    <line x1="1900" y1="0" x2="1900" y2="200" />
  </g>
  
  <!-- Small Circles at Intersections -->
  <g fill="rgba(0,198,255,0.2)">
    <circle cx="100" cy="50" r="2" />
    <circle cx="300" cy="50" r="2" />
    <circle cx="500" cy="50" r="2" />
    <circle cx="700" cy="50" r="2" />
    <circle cx="900" cy="50" r="2" />
    <circle cx="1100" cy="50" r="2" />
    <circle cx="1300" cy="50" r="2" />
    <circle cx="1500" cy="50" r="2" />
    <circle cx="1700" cy="50" r="2" />
    <circle cx="1900" cy="50" r="2" />
    
    <circle cx="100" cy="100" r="2" />
    <circle cx="300" cy="100" r="2" />
    <circle cx="500" cy="100" r="2" />
    <circle cx="700" cy="100" r="2" />
    <circle cx="900" cy="100" r="2" />
    <circle cx="1100" cy="100" r="2" />
    <circle cx="1300" cy="100" r="2" />
    <circle cx="1500" cy="100" r="2" />
    <circle cx="1700" cy="100" r="2" />
    <circle cx="1900" cy="100" r="2" />
    
    <circle cx="100" cy="150" r="2" />
    <circle cx="300" cy="150" r="2" />
    <circle cx="500" cy="150" r="2" />
    <circle cx="700" cy="150" r="2" />
    <circle cx="900" cy="150" r="2" />
    <circle cx="1100" cy="150" r="2" />
    <circle cx="1300" cy="150" r="2" />
    <circle cx="1500" cy="150" r="2" />
    <circle cx="1700" cy="150" r="2" />
    <circle cx="1900" cy="150" r="2" />
  </g>
  
  <!-- Glow Filter for Bottom Border -->
  <defs>
    <filter id="glow" x="-50%" y="-50%" width="200%" height="200%">
      <feGaussianBlur stdDeviation="3" result="blur" />
      <feComposite in="SourceGraphic" in2="blur" operator="over" />
    </filter>
  </defs>
</svg>