<svg xmlns="http://www.w3.org/2000/svg" width="1920" height="1080" viewBox="0 0 1920 1080">
  <!-- Background -->
  <rect width="1920" height="1080" fill="none"/>
  
  <!-- Grid Pattern -->
  <g stroke="rgba(0,198,255,0.1)" stroke-width="1">
    <!-- Horizontal Lines -->
    <line x1="0" y1="100" x2="1920" y2="100" />
    <line x1="0" y1="200" x2="1920" y2="200" />
    <line x1="0" y1="300" x2="1920" y2="300" />
    <line x1="0" y1="400" x2="1920" y2="400" />
    <line x1="0" y1="500" x2="1920" y2="500" />
    <line x1="0" y1="600" x2="1920" y2="600" />
    <line x1="0" y1="700" x2="1920" y2="700" />
    <line x1="0" y1="800" x2="1920" y2="800" />
    <line x1="0" y1="900" x2="1920" y2="900" />
    <line x1="0" y1="1000" x2="1920" y2="1000" />
    
    <!-- Vertical Lines -->
    <line x1="100" y1="0" x2="100" y2="1080" />
    <line x1="300" y1="0" x2="300" y2="1080" />
    <line x1="500" y1="0" x2="500" y2="1080" />
    <line x1="700" y1="0" x2="700" y2="1080" />
    <line x1="900" y1="0" x2="900" y2="1080" />
    <line x1="1100" y1="0" x2="1100" y2="1080" />
    <line x1="1300" y1="0" x2="1300" y2="1080" />
    <line x1="1500" y1="0" x2="1500" y2="1080" />
    <line x1="1700" y1="0" x2="1700" y2="1080" />
    <line x1="1900" y1="0" x2="1900" y2="1080" />
  </g>
  
  <!-- Diagonal Lines -->
  <g stroke="rgba(0,198,255,0.05)" stroke-width="1">
    <line x1="0" y1="0" x2="1920" y2="1080" />
    <line x1="1920" y1="0" x2="0" y2="1080" />
  </g>
  
  <!-- Circles at Intersections -->
  <g fill="rgba(0,198,255,0.15)">
    <!-- Row 1 -->
    <circle cx="100" cy="100" r="3" />
    <circle cx="300" cy="100" r="3" />
    <circle cx="500" cy="100" r="3" />
    <circle cx="700" cy="100" r="3" />
    <circle cx="900" cy="100" r="3" />
    <circle cx="1100" cy="100" r="3" />
    <circle cx="1300" cy="100" r="3" />
    <circle cx="1500" cy="100" r="3" />
    <circle cx="1700" cy="100" r="3" />
    <circle cx="1900" cy="100" r="3" />
    
    <!-- Row 3 -->
    <circle cx="100" cy="300" r="3" />
    <circle cx="300" cy="300" r="3" />
    <circle cx="500" cy="300" r="3" />
    <circle cx="700" cy="300" r="3" />
    <circle cx="900" cy="300" r="3" />
    <circle cx="1100" cy="300" r="3" />
    <circle cx="1300" cy="300" r="3" />
    <circle cx="1500" cy="300" r="3" />
    <circle cx="1700" cy="300" r="3" />
    <circle cx="1900" cy="300" r="3" />
    
    <!-- Row 5 -->
    <circle cx="100" cy="500" r="3" />
    <circle cx="300" cy="500" r="3" />
    <circle cx="500" cy="500" r="3" />
    <circle cx="700" cy="500" r="3" />
    <circle cx="900" cy="500" r="3" />
    <circle cx="1100" cy="500" r="3" />
    <circle cx="1300" cy="500" r="3" />
    <circle cx="1500" cy="500" r="3" />
    <circle cx="1700" cy="500" r="3" />
    <circle cx="1900" cy="500" r="3" />
    
    <!-- Row 7 -->
    <circle cx="100" cy="700" r="3" />
    <circle cx="300" cy="700" r="3" />
    <circle cx="500" cy="700" r="3" />
    <circle cx="700" cy="700" r="3" />
    <circle cx="900" cy="700" r="3" />
    <circle cx="1100" cy="700" r="3" />
    <circle cx="1300" cy="700" r="3" />
    <circle cx="1500" cy="700" r="3" />
    <circle cx="1700" cy="700" r="3" />
    <circle cx="1900" cy="700" r="3" />
    
    <!-- Row 9 -->
    <circle cx="100" cy="900" r="3" />
    <circle cx="300" cy="900" r="3" />
    <circle cx="500" cy="900" r="3" />
    <circle cx="700" cy="900" r="3" />
    <circle cx="900" cy="900" r="3" />
    <circle cx="1100" cy="900" r="3" />
    <circle cx="1300" cy="900" r="3" />
    <circle cx="1500" cy="900" r="3" />
    <circle cx="1700" cy="900" r="3" />
    <circle cx="1900" cy="900" r="3" />
  </g>
  
  <!-- Gaming Icons -->
  <g fill="rgba(0,198,255,0.1)">
    <!-- Controller -->
    <path d="M400,200 C380,190 370,210 350,210 L250,210 C230,210 220,190 200,200 C180,210 170,240 170,270 C170,300 180,330 200,340 C220,350 230,330 250,330 L350,330 C370,330 380,350 400,340 C420,330 430,300 430,270 C430,240 420,210 400,200 Z M240,290 L240,310 L220,310 L220,290 L200,290 L200,270 L220,270 L220,250 L240,250 L240,270 L260,270 L260,290 L240,290 Z M350,290 C340,290 330,280 330,270 C330,260 340,250 350,250 C360,250 370,260 370,270 C370,280 360,290 350,290 Z M390,250 C380,250 370,240 370,230 C370,220 380,210 390,210 C400,210 410,220 410,230 C410,240 400,250 390,250 Z" />
    
    <!-- Keyboard -->
    <path d="M1600,800 L1600,900 L1300,900 L1300,800 L1600,800 Z M1320,820 L1340,820 L1340,840 L1320,840 L1320,820 Z M1350,820 L1370,820 L1370,840 L1350,840 L1350,820 Z M1380,820 L1400,820 L1400,840 L1380,840 L1380,820 Z M1410,820 L1430,820 L1430,840 L1410,840 L1410,820 Z M1440,820 L1460,820 L1460,840 L1440,840 L1440,820 Z M1470,820 L1490,820 L1490,840 L1470,840 L1470,820 Z M1500,820 L1520,820 L1520,840 L1500,840 L1500,820 Z M1530,820 L1550,820 L1550,840 L1530,840 L1530,820 Z M1560,820 L1580,820 L1580,840 L1560,840 L1560,820 Z M1320,850 L1340,850 L1340,870 L1320,870 L1320,850 Z M1350,850 L1370,850 L1370,870 L1350,870 L1350,850 Z M1380,850 L1400,850 L1400,870 L1380,870 L1380,850 Z M1410,850 L1430,850 L1430,870 L1410,870 L1410,850 Z M1440,850 L1460,850 L1460,870 L1440,870 L1440,850 Z M1470,850 L1490,850 L1490,870 L1470,870 L1470,850 Z M1500,850 L1520,850 L1520,870 L1500,870 L1500,850 Z M1530,850 L1580,850 L1580,870 L1530,870 L1530,850 Z" />
    
    <!-- Mouse -->
    <path d="M1400,600 C1400,570 1420,550 1450,550 C1480,550 1500,570 1500,600 L1500,650 C1500,680 1480,700 1450,700 C1420,700 1400,680 1400,650 L1400,600 Z M1440,580 L1460,580 L1460,610 L1440,610 L1440,580 Z" />
    
    <!-- Headset -->
    <path d="M800,450 C750,450 700,480 700,550 L700,600 L720,600 L720,550 C720,490 760,470 800,470 C840,470 880,490 880,550 L880,600 L900,600 L900,550 C900,480 850,450 800,450 Z M700,610 C690,610 680,620 680,630 L680,670 C680,680 690,690 700,690 L720,690 L720,610 L700,610 Z M880,610 L880,690 L900,690 C910,690 920,680 920,670 L920,630 C920,620 910,610 900,610 L880,610 Z" />
  </g>
  
  <!-- Glow Effect at Bottom -->
  <linearGradient id="bottomGlow" x1="0%" y1="0%" x2="100%" y2="0%">
    <stop offset="0%" stop-color="rgba(0,198,255,0)" />
    <stop offset="50%" stop-color="rgba(0,198,255,0.5)" />
    <stop offset="100%" stop-color="rgba(0,198,255,0)" />
  </linearGradient>
  <rect x="0" y="1078" width="1920" height="2" fill="url(#bottomGlow)" />
</svg>