<svg xmlns="http://www.w3.org/2000/svg" width="100" height="100" viewBox="0 0 100 100">
  <!-- Outer Circle with Gradient -->
  <defs>
    <linearGradient id="circleGradient" x1="0%" y1="0%" x2="100%" y2="100%">
      <stop offset="0%" stop-color="#00c6ff" />
      <stop offset="100%" stop-color="#0072ff" />
    </linearGradient>
    
    <!-- Glow Effect -->
    <filter id="glow" x="-20%" y="-20%" width="140%" height="140%">
      <feGaussianBlur stdDeviation="3" result="blur" />
      <feComposite in="SourceGraphic" in2="blur" operator="over" />
    </filter>
  </defs>
  
  <!-- Main Circle -->
  <circle cx="50" cy="50" r="45" fill="url(#circleGradient)" filter="url(#glow)" />
  
  <!-- Inner Circle -->
  <circle cx="50" cy="50" r="40" fill="#ffffff" opacity="0.1" />
  
  <!-- Decorative Elements -->
  <g stroke="#ffffff" stroke-width="1.5" opacity="0.5">
    <!-- Concentric Circles -->
    <circle cx="50" cy="50" r="35" fill="none" />
    <circle cx="50" cy="50" r="30" fill="none" />
    
    <!-- Cross Lines -->
    <line x1="15" y1="15" x2="85" y2="85" />
    <line x1="85" y1="15" x2="15" y2="85" />
  </g>
  
  <!-- Corner Accents -->
  <g fill="#ffffff" opacity="0.7">
    <circle cx="20" cy="20" r="3" />
    <circle cx="80" cy="20" r="3" />
    <circle cx="20" cy="80" r="3" />
    <circle cx="80" cy="80" r="3" />
  </g>
  
  <!-- Center Circle for Number Placement -->
  <circle cx="50" cy="50" r="25" fill="#ffffff" />
  
  <!-- Tech Border around Center Circle -->
  <g stroke="#00c6ff" stroke-width="2" fill="none">
    <path d="M50,25 L60,25 L65,30 L65,40" />
    <path d="M50,75 L40,75 L35,70 L35,60" />
    <path d="M25,50 L25,40 L30,35 L40,35" />
    <path d="M75,50 L75,60 L70,65 L60,65" />
  </g>
</svg>